<svg xmlns="http://www.w3.org/2000/svg" width="960" height="480" viewBox="0 0 960 480">
  <defs><marker id="axis-arrow" markerWidth="9" markerHeight="9" refX="8" refY="4.5" orient="auto"><path d="M0,0 L9,4.5 L0,9 Z" fill="#1f2937"/></marker><style>text{font-family:"Microsoft YaHei",sans-serif;fill:#1f2937}</style></defs>
  <text x="480" y="43" text-anchor="middle" font-size="27">平面应力状态的莫尔应力圆</text>
  <line x1="90" y1="260" x2="875" y2="260" stroke="#1f2937" stroke-width="3" marker-end="url(#axis-arrow)"/>
  <line x1="300" y1="420" x2="300" y2="75" stroke="#1f2937" stroke-width="3" marker-end="url(#axis-arrow)"/>
  <text x="885" y="268" font-size="24">σ</text><text x="285" y="70" font-size="24">τ</text>
  <circle cx="525" cy="260" r="175" fill="#eff6ff" fill-opacity=".55" stroke="#2563eb" stroke-width="4"/>
  <line x1="525" y1="260" x2="665" y2="155" stroke="#dc2626" stroke-width="3"/>
  <circle cx="665" cy="155" r="7" fill="#dc2626"/><circle cx="385" cy="365" r="7" fill="#dc2626"/>
  <line x1="385" y1="365" x2="665" y2="155" stroke="#dc2626" stroke-width="2" stroke-dasharray="8 7"/>
  <circle cx="525" cy="260" r="6" fill="#1f2937"/>
  <text x="525" y="292" text-anchor="middle" font-size="20">圆心 C</text><text x="600" y="188" font-size="21" fill="#dc2626">半径 R</text>
  <text x="690" y="145" font-size="20">(σx, τxy)</text><text x="245" y="388" font-size="20">(σy, -τxy)</text>
  <line x1="350" y1="252" x2="350" y2="269" stroke="#1f2937" stroke-width="3"/><line x1="700" y1="252" x2="700" y2="269" stroke="#1f2937" stroke-width="3"/>
  <text x="350" y="300" text-anchor="middle" font-size="21">σmin</text><text x="700" y="300" text-anchor="middle" font-size="21">σmax</text>
  <line x1="517" y1="85" x2="534" y2="85" stroke="#1f2937" stroke-width="3"/><line x1="517" y1="435" x2="534" y2="435" stroke="#1f2937" stroke-width="3"/>
  <text x="555" y="92" font-size="21">τmax</text><text x="555" y="442" font-size="21">-τmax</text>
</svg>
