<svg xmlns="http://www.w3.org/2000/svg" width="960" height="420" viewBox="0 0 960 420">
  <defs>
    <marker id="arrow-blue" markerWidth="9" markerHeight="9" refX="8" refY="4.5" orient="auto"><path d="M0,0 L9,4.5 L0,9 Z" fill="#2563eb"/></marker>
    <marker id="arrow-red" markerWidth="9" markerHeight="9" refX="8" refY="4.5" orient="auto"><path d="M0,0 L9,4.5 L0,9 Z" fill="#dc2626"/></marker>
    <style>text{font-family:"Microsoft YaHei",sans-serif;fill:#1f2937} .b{stroke:#2563eb;stroke-width:3;fill:none;marker-end:url(#arrow-blue)} .r{stroke:#dc2626;stroke-width:3;fill:none;marker-end:url(#arrow-red)}</style>
  </defs>
  <text x="480" y="42" text-anchor="middle" font-size="27">平面应力状态与斜截面</text>
  <g transform="translate(70 75)">
    <rect x="120" y="80" width="180" height="180" fill="#f8fafc" stroke="#1f2937" stroke-width="4"/>
    <line class="b" x1="300" y1="170" x2="385" y2="170"/><line class="b" x1="120" y1="170" x2="35" y2="170"/>
    <line class="b" x1="210" y1="80" x2="210" y2="15"/><line class="b" x1="210" y1="260" x2="210" y2="325"/>
    <line class="r" x1="300" y1="225" x2="300" y2="125"/><line class="r" x1="120" y1="115" x2="120" y2="215"/>
    <line class="r" x1="155" y1="80" x2="255" y2="80"/><line class="r" x1="265" y1="260" x2="165" y2="260"/>
    <text x="390" y="160" font-size="22" fill="#2563eb">σx</text><text x="220" y="18" font-size="22" fill="#2563eb">σy</text>
    <text x="315" y="120" font-size="22" fill="#dc2626">τxy</text>
  </g>
  <g transform="translate(555 83)">
    <polygon points="75,210 210,55 325,165 190,320" fill="#f8fafc" stroke="#1f2937" stroke-width="4"/>
    <line x1="75" y1="210" x2="325" y2="165" stroke="#6b7280" stroke-width="3" stroke-dasharray="8 7"/>
    <line class="b" x1="200" y1="187" x2="285" y2="172"/><line class="r" x1="200" y1="187" x2="215" y2="272"/>
    <path d="M150 225 A55 55 0 0 1 143 181" fill="none" stroke="#f59e0b" stroke-width="3"/>
    <text x="130" y="205" font-size="22" fill="#f59e0b">α</text><text x="290" y="160" font-size="22" fill="#2563eb">σα</text><text x="220" y="295" font-size="22" fill="#dc2626">τα</text>
    <text x="200" y="355" text-anchor="middle" font-size="21">斜截面上的正应力与切应力</text>
  </g>
</svg>
