<svg xmlns="http://www.w3.org/2000/svg" width="1080" height="500" viewBox="0 0 1080 500">
  <defs><marker id="load" markerWidth="9" markerHeight="9" refX="8" refY="4.5" orient="auto"><path d="M0 0L9 4.5 0 9Z" fill="#dc2626"/></marker><style>text{font-family:"Microsoft YaHei",sans-serif;fill:#1f2937}.bar{stroke:#1f2937;stroke-width:7;fill:none}.bend{stroke:#2563eb;stroke-width:4;fill:none}.wall{fill:#e5e7eb;stroke:#1f2937;stroke-width:2}.pin{fill:white;stroke:#1f2937;stroke-width:3}</style></defs>
  <text x="540" y="42" text-anchor="middle" font-size="28">不同端部约束下压杆的有效长度</text>
  <g transform="translate(65 75)">
    <line class="bar" x1="100" y1="55" x2="100" y2="310"/><path class="bend" d="M100 55 Q178 182 100 310"/><polygon class="pin" points="100,310 72,355 128,355"/><polygon class="pin" points="100,55 72,10 128,10"/>
    <line x1="100" y1="-5" x2="100" y2="35" stroke="#dc2626" stroke-width="3" marker-end="url(#load)"/><text x="100" y="395" text-anchor="middle" font-size="21">两端铰支</text><text x="100" y="430" text-anchor="middle" font-size="20" fill="#2563eb">μ = 1</text>
  </g>
  <g transform="translate(325 75)">
    <line class="bar" x1="100" y1="55" x2="100" y2="310"/><path class="bend" d="M100 55 Q240 170 100 310"/><rect class="wall" x="55" y="310" width="90" height="22"/><line x1="62" y1="335" x2="45" y2="352" stroke="#64748b" stroke-width="2"/><line x1="88" y1="335" x2="71" y2="352" stroke="#64748b" stroke-width="2"/><line x1="114" y1="335" x2="97" y2="352" stroke="#64748b" stroke-width="2"/><line x1="140" y1="335" x2="123" y2="352" stroke="#64748b" stroke-width="2"/>
    <line x1="100" y1="-5" x2="100" y2="35" stroke="#dc2626" stroke-width="3" marker-end="url(#load)"/><text x="100" y="395" text-anchor="middle" font-size="21">一端固定、一端自由</text><text x="100" y="430" text-anchor="middle" font-size="20" fill="#2563eb">μ = 2</text>
  </g>
  <g transform="translate(590 75)">
    <line class="bar" x1="100" y1="55" x2="100" y2="310"/><path class="bend" d="M100 55 Q175 165 100 310"/><polygon class="pin" points="100,55 72,10 128,10"/><rect class="wall" x="55" y="310" width="90" height="22"/><line x1="62" y1="335" x2="45" y2="352" stroke="#64748b" stroke-width="2"/><line x1="92" y1="335" x2="75" y2="352" stroke="#64748b" stroke-width="2"/><line x1="122" y1="335" x2="105" y2="352" stroke="#64748b" stroke-width="2"/>
    <line x1="100" y1="-5" x2="100" y2="35" stroke="#dc2626" stroke-width="3" marker-end="url(#load)"/><text x="100" y="395" text-anchor="middle" font-size="21">一端固定、一端铰支</text><text x="100" y="430" text-anchor="middle" font-size="20" fill="#2563eb">μ ≈ 0.7</text>
  </g>
  <g transform="translate(850 75)">
    <line class="bar" x1="100" y1="55" x2="100" y2="310"/><path class="bend" d="M100 55 Q150 120 100 182 Q50 245 100 310"/><rect class="wall" x="55" y="33" width="90" height="22"/><rect class="wall" x="55" y="310" width="90" height="22"/>
    <line x1="100" y1="-5" x2="100" y2="25" stroke="#dc2626" stroke-width="3" marker-end="url(#load)"/><text x="100" y="395" text-anchor="middle" font-size="21">两端固定</text><text x="100" y="430" text-anchor="middle" font-size="20" fill="#2563eb">μ = 0.5</text>
  </g>
</svg>
